<?xml version="1.0" standalone="no"?>
<!DOCTYPE svg PUBLIC "-//W3C//DTD SVG 20010904//EN"
 "http://www.w3.org/TR/2001/REC-SVG-20010904/DTD/svg10.dtd">
<svg version="1.0" xmlns="http://www.w3.org/2000/svg"
 width="87.000000pt" height="90.000000pt" viewBox="0 0 87.000000 90.000000"
 preserveAspectRatio="xMidYMid meet">

<g transform="translate(0.000000,90.000000) scale(0.100000,-0.100000)"
fill="#000000" stroke="none">
<path d="M730 785 l-64 -65 -31 30 c-38 36 -53 37 -152 5 l-77 -24 -188 -188
c-103 -103 -188 -192 -188 -198 0 -13 282 -295 295 -295 6 0 95 85 198 188
l188 188 24 77 c32 100 31 117 -5 152 l-30 29 66 67 c45 46 65 72 61 83 -11
28 -31 18 -97 -49z m-120 -70 c23 -24 23 -25 5 -45 -11 -13 -25 -18 -39 -14
-14 3 -32 -3 -49 -16 -51 -40 -23 -120 42 -120 37 0 75 44 67 76 -4 14 1 28
15 39 19 18 20 18 44 -6 l24 -24 -24 -80 -25 -80 -170 -170 -170 -170 -122
123 -123 122 170 170 c170 170 170 170 245 194 41 13 78 24 81 25 3 1 16 -10
29 -24z m-23 -121 c3 -8 1 -20 -6 -27 -14 -14 -47 15 -37 32 10 16 36 13 43
-5z"/>
</g>
</svg>
